<?xml version="1.0" standalone="no"?><!DOCTYPE svg PUBLIC "-//W3C//DTD SVG 1.1//EN" "http://www.w3.org/Graphics/SVG/1.1/DTD/svg11.dtd"><svg t="1699688096314" class="icon" viewBox="0 0 1024 1024" version="1.1" xmlns="http://www.w3.org/2000/svg" p-id="9136" xmlns:xlink="http://www.w3.org/1999/xlink" width="32" height="32"><path d="M1024 85.32c0 11.782-9.562 21.344-21.312 21.344-11.812 0-21.376-9.562-21.376-21.344s9.562-21.328 21.376-21.328c11.75 0 21.312 9.548 21.312 21.328zM1024 170.664c0 11.782-9.562 21.328-21.312 21.328-11.812 0-21.376-9.546-21.376-21.328s9.562-21.344 21.376-21.344c11.75 0 21.312 9.562 21.312 21.344zM1024 255.992c0 11.782-9.562 21.328-21.312 21.328-11.812 0-21.376-9.546-21.376-21.328s9.562-21.328 21.376-21.328c11.75 0 21.312 9.546 21.312 21.328zM1024 341.32c0 11.782-9.562 21.344-21.312 21.344-11.812 0-21.376-9.562-21.376-21.344s9.562-21.328 21.376-21.328c11.75 0 21.312 9.548 21.312 21.328zM1024 426.664c0 11.782-9.562 21.328-21.312 21.328-11.812 0-21.376-9.546-21.376-21.328s9.562-21.344 21.376-21.344c11.75 0 21.312 9.562 21.312 21.344zM1024 511.992c0 11.782-9.562 21.328-21.312 21.328-11.812 0-21.376-9.546-21.376-21.328s9.562-21.328 21.376-21.328c11.75 0 21.312 9.546 21.312 21.328zM1024 597.304c0 11.812-9.562 21.376-21.312 21.376a21.366 21.366 0 0 1-21.376-21.376c0-11.75 9.562-21.312 21.376-21.312 11.75 0 21.312 9.562 21.312 21.312zM1024 682.68c0 11.75-9.562 21.312-21.312 21.312-11.812 0-21.376-9.562-21.376-21.312a21.366 21.366 0 0 1 21.376-21.376c11.75 0 21.312 9.564 21.312 21.376zM1024 767.992c0 11.782-9.562 21.312-21.312 21.312-11.812 0-21.376-9.532-21.376-21.312s9.562-21.312 21.376-21.312c11.75 0 21.312 9.53 21.312 21.312zM1024 853.304c0 11.812-9.562 21.376-21.312 21.376a21.366 21.366 0 0 1-21.376-21.376c0-11.75 9.562-21.312 21.376-21.312 11.75 0 21.312 9.562 21.312 21.312zM1024 938.68c0 11.75-9.562 21.312-21.312 21.312-11.812 0-21.376-9.562-21.376-21.312a21.366 21.366 0 0 1 21.376-21.376c11.75 0 21.312 9.564 21.312 21.376zM938.688 1002.68a21.366 21.366 0 0 1-21.376-21.376c0-11.75 9.562-21.312 21.376-21.312 11.75 0 21.312 9.562 21.312 21.312 0 11.814-9.562 21.376-21.312 21.376zM853.312 1002.68c-11.75 0-21.312-9.562-21.312-21.376 0-11.75 9.562-21.312 21.312-21.312 11.812 0 21.376 9.562 21.376 21.312a21.366 21.366 0 0 1-21.376 21.376zM768 1002.68c-11.782 0-21.312-9.562-21.312-21.376 0-11.75 9.532-21.312 21.312-21.312s21.312 9.562 21.312 21.312c0 11.814-9.53 21.376-21.312 21.376zM682.688 1002.68a21.366 21.366 0 0 1-21.376-21.376c0-11.75 9.562-21.312 21.376-21.312 11.75 0 21.312 9.562 21.312 21.312 0 11.814-9.562 21.376-21.312 21.376zM597.312 1002.68c-11.75 0-21.312-9.562-21.312-21.376 0-11.75 9.562-21.312 21.312-21.312 11.812 0 21.376 9.562 21.376 21.312a21.366 21.366 0 0 1-21.376 21.376zM512 1002.68c-11.782 0-21.328-9.562-21.328-21.376 0-11.75 9.546-21.312 21.328-21.312s21.328 9.562 21.328 21.312c0 11.814-9.546 21.376-21.328 21.376zM426.672 1002.68c-11.782 0-21.344-9.562-21.344-21.376 0-11.75 9.562-21.312 21.344-21.312S448 969.554 448 981.304c0 11.814-9.546 21.376-21.328 21.376zM341.328 1002.68c-11.782 0-21.328-9.562-21.328-21.376 0-11.75 9.546-21.312 21.328-21.312s21.344 9.562 21.344 21.312c0 11.814-9.562 21.376-21.344 21.376zM256 1002.68c-11.782 0-21.328-9.562-21.328-21.376 0-11.75 9.546-21.312 21.328-21.312s21.328 9.562 21.328 21.312c0 11.814-9.546 21.376-21.328 21.376zM170.672 1002.68c-11.782 0-21.344-9.562-21.344-21.376 0-11.75 9.562-21.312 21.344-21.312S192 969.554 192 981.304c0 11.814-9.546 21.376-21.328 21.376zM85.328 1002.68c-11.782 0-21.328-9.562-21.328-21.376 0-11.75 9.546-21.312 21.328-21.312s21.344 9.562 21.344 21.312c0 11.814-9.562 21.376-21.344 21.376z" fill="#FFCE54" p-id="9137"></path><path d="M938.688 63.992c-11.782 0-21.312-9.546-21.312-21.328s9.532-21.344 21.312-21.344 21.344 9.562 21.344 21.344-9.564 21.328-21.344 21.328zM853.376 63.992c-11.812 0-21.376-9.546-21.376-21.328s9.562-21.344 21.376-21.344c11.75 0 21.312 9.562 21.312 21.344s-9.564 21.328-21.312 21.328zM768 63.992c-11.75 0-21.312-9.546-21.312-21.328S756.25 21.32 768 21.32c11.812 0 21.376 9.562 21.376 21.344S779.812 63.992 768 63.992zM682.688 63.992c-11.782 0-21.312-9.546-21.312-21.328s9.532-21.344 21.312-21.344S704 30.882 704 42.664s-9.532 21.328-21.312 21.328zM597.376 63.992c-11.812 0-21.344-9.546-21.344-21.328s9.532-21.344 21.344-21.344c11.75 0 21.312 9.562 21.312 21.344s-9.564 21.328-21.312 21.328zM512.032 63.992c-11.782 0-21.344-9.546-21.344-21.328s9.562-21.344 21.344-21.344 21.328 9.562 21.328 21.344-9.548 21.328-21.328 21.328zM426.688 63.992c-11.782 0-21.328-9.546-21.328-21.328s9.546-21.344 21.328-21.344 21.344 9.562 21.344 21.344-9.564 21.328-21.344 21.328zM341.36 63.992c-11.782 0-21.344-9.546-21.344-21.328s9.562-21.344 21.344-21.344 21.328 9.562 21.328 21.344-9.548 21.328-21.328 21.328zM256.016 63.992c-11.782 0-21.328-9.546-21.328-21.328s9.546-21.344 21.328-21.344 21.344 9.562 21.344 21.344-9.564 21.328-21.344 21.328zM170.688 63.992c-11.782 0-21.328-9.546-21.328-21.328S158.906 21.32 170.688 21.32s21.328 9.562 21.328 21.344-9.548 21.328-21.328 21.328zM85.36 63.992c-11.782 0-21.344-9.546-21.344-21.328S73.578 21.32 85.36 21.32s21.328 9.562 21.328 21.344S97.14 63.992 85.36 63.992z" fill="#FFCE54" p-id="9138"></path><path d="M42.672 85.32c0 11.782-9.562 21.344-21.344 21.344S0 97.102 0 85.32s9.546-21.328 21.328-21.328S42.672 73.54 42.672 85.32zM42.672 170.664c0 11.782-9.562 21.328-21.344 21.328S0 182.446 0 170.664 9.546 149.32 21.328 149.32s21.344 9.562 21.344 21.344zM42.672 255.992c0 11.782-9.562 21.328-21.344 21.328S0 267.774 0 255.992s9.546-21.328 21.328-21.328 21.344 9.546 21.344 21.328zM42.672 341.32c0 11.782-9.562 21.344-21.344 21.344S0 353.102 0 341.32s9.546-21.328 21.328-21.328 21.344 9.548 21.344 21.328zM42.672 426.664c0 11.782-9.562 21.328-21.344 21.328S0 438.446 0 426.664s9.546-21.344 21.328-21.344 21.344 9.562 21.344 21.344zM42.672 511.992c0 11.782-9.562 21.328-21.344 21.328S0 523.774 0 511.992s9.546-21.328 21.328-21.328 21.344 9.546 21.344 21.328zM42.672 597.304c0 11.812-9.562 21.376-21.344 21.376S0 609.118 0 597.304c0-11.75 9.546-21.312 21.328-21.312s21.344 9.562 21.344 21.312zM42.672 682.68c0 11.75-9.562 21.312-21.344 21.312S0 694.43 0 682.68c0-11.812 9.546-21.376 21.328-21.376s21.344 9.564 21.344 21.376zM42.672 767.992c0 11.782-9.562 21.312-21.344 21.312S0 779.774 0 767.992s9.546-21.312 21.328-21.312 21.344 9.53 21.344 21.312zM42.672 853.304c0 11.812-9.562 21.376-21.344 21.376S0 865.118 0 853.304c0-11.75 9.546-21.312 21.328-21.312s21.344 9.562 21.344 21.312zM42.672 938.68c0 11.75-9.562 21.312-21.344 21.312S0 950.43 0 938.68c0-11.812 9.546-21.376 21.328-21.376s21.344 9.564 21.344 21.376z" fill="#FFCE54" p-id="9139"></path><path d="M42.672 63.992h938.64v896H42.672z" fill="#A0D468" p-id="9140"></path><path d="M42.672 853.304v106.688h59.546l62.204-15.062-106.672-106.688z" fill="#434A54" p-id="9141"></path><path d="M21.328 42.664v938.64h981.36V42.664H21.328zM960 938.68H64V85.32h896v853.36z" fill="#8CC153" p-id="9142"></path><path d="M896 341.32V170.664c0-23.562-19.124-42.672-42.688-42.672H170.718c-23.578 0-42.672 19.11-42.672 42.672v170.656l-21.376 42.672v256l21.376 42.688v170.624c0 23.562 19.094 42.688 42.672 42.688h192l42.656-21.312H640l42.688 21.312h170.624c23.562 0 42.688-19.124 42.688-42.688V682.68l21.376-42.688v-256L896 341.32z" fill="#CCD1D9" p-id="9143"></path><path d="M981.312 234.664c0 11.782-9.532 21.328-21.312 21.328s-21.312-9.546-21.312-21.328S948.218 213.32 960 213.32s21.312 9.562 21.312 21.344zM85.328 234.664c0 11.782-9.546 21.328-21.328 21.328s-21.328-9.546-21.328-21.328S52.218 213.32 64 213.32s21.328 9.562 21.328 21.344zM448 917.304c0 11.812-9.546 21.376-21.328 21.376s-21.344-9.562-21.344-21.376c0-11.75 9.562-21.312 21.344-21.312S448 905.554 448 917.304zM533.328 917.304c0 11.812-9.546 21.376-21.328 21.376s-21.328-9.562-21.328-21.376c0-11.75 9.546-21.312 21.328-21.312s21.328 9.562 21.328 21.312zM618.688 917.304a21.366 21.366 0 0 1-21.376 21.376c-11.75 0-21.312-9.562-21.312-21.376 0-11.75 9.562-21.312 21.312-21.312 11.812 0 21.376 9.562 21.376 21.312z" fill="#8CC153" p-id="9144"></path><path d="M213.328 213.32h597.36v597.36h-597.36z" fill="#E6E9ED" p-id="9145"></path><path d="M374.766 571.43c-21.89 0-35.782-17.876-35.782-45.876 0-22.672 10.078-46.078 36.172-46.078 15.984 0 27.032 8.75 30.078 23.61h29.124c-2.282-28-26.078-48.562-58.64-48.562-41.5 0-66.64 31.422-66.64 70.828 0 42.828 26.094 71.204 65.5 71.204 37.124 0 57.688-22.438 60.734-55.578h-29.5c-2.484 19.796-13.14 30.452-31.046 30.452zM523.922 457.774h-58.454v135.562h29.516v-48.75h30.468c27.234 0 48.172-13.704 48.172-43.218 0-29.892-20.374-43.594-49.702-43.594z m-2.468 63.39h-26.468v-39.032h26.656c13.14 0 23.046 5.14 23.046 19.61 0 15.048-9.906 19.422-23.234 19.422zM685.438 457.774v81.11c0 19.984-4.75 32.546-27.624 32.546-23.218 0-29.124-11.812-29.124-32.546v-81.11H599v81.11c0 38.64 18.062 57.11 58.438 57.11 39.624 0 57.688-18.062 57.688-56.734v-81.484h-29.688z" fill="#434A54" p-id="9146"></path></svg>