<?xml version="1.0" standalone="no"?><!DOCTYPE svg PUBLIC "-//W3C//DTD SVG 1.1//EN" "http://www.w3.org/Graphics/SVG/1.1/DTD/svg11.dtd"><svg t="1699688640410" class="icon" viewBox="0 0 1024 1024" version="1.1" xmlns="http://www.w3.org/2000/svg" p-id="16414" xmlns:xlink="http://www.w3.org/1999/xlink" width="512" height="512"><path d="M72.026 208.018h63.996v47.998H72.026zM168.02 224.018h847.95v31.998H168.02z" fill="#5C9EFF" p-id="16415"></path><path d="M72.026 703.988h31.998v31.998H72.026zM200.018 703.988h63.996v47.996h-63.996zM296.012 703.988h223.986v47.996H296.012zM40.028 256.016h63.996v447.972H40.028z" fill="#D7E9FF" p-id="16416"></path><path d="M104.024 256.016h911.946v447.972H104.024z" fill="#94C1FF" p-id="16417"></path><path d="M344.008 480.002m-175.99 0a175.99 175.99 0 1 0 351.98 0 175.99 175.99 0 1 0-351.98 0Z" fill="#5C9EFF" p-id="16418"></path><path d="M775.984 480.002m-175.99 0a175.99 175.99 0 1 0 351.98 0 175.99 175.99 0 1 0-351.98 0Z" fill="#5C9EFF" p-id="16419"></path><path d="M72.51 376.008c-4.422 0-8.076-3.578-8.076-8s3.5-8 7.904-8h0.172c4.406 0 8 3.578 8 8s-3.594 8-8 8z" fill="#116FFF" p-id="16420"></path><path d="M821.746 480.478l2.234-0.476c63.996 0 95.994-16 95.994-16s8.482-31.998-16-63.996c-28.638 43.036-83.198 47.52-94.072 47.998v-1.922c45.28-45.278 56.636-79.19 56.636-79.19s-16.638-28.638-56.636-33.92c9.438 47.036-20.482 86.394-30.56 98.072h-3.36c-0.156-63.356-15.998-95.034-15.998-95.034s-31.998-8.476-63.996 16c42.714 28.474 47.356 82.558 47.84 93.916l-1.766 0.156c-45.278-45.278-79.198-56.636-79.198-56.636s-28.638 16.638-33.92 56.636c50.246-10.078 91.526 24.638 100.166 32.318l-1.124 1.602c-63.996 0-95.994 16-95.994 16s-8.484 32 15.998 63.996c28.482-42.714 82.558-47.356 93.916-47.84l0.156 1.766c-45.278 45.278-56.636 79.2-56.636 79.2s16.64 28.622 56.636 33.902c-10.078-50.23 24.64-91.494 32.326-100.14l1.594 1.118c0 63.996 16 95.992 16 95.992s31.998 8.468 63.996-15.998c-43.044-28.638-47.514-83.198-47.998-94.072h1.922c45.28 45.278 79.2 56.636 79.2 56.636s28.638-16.638 33.92-56.636c-53.28 10.714-96.636-29.128-101.276-33.448zM775.982 512c-17.592 0-31.998-14.398-31.998-31.998s14.406-31.998 31.998-31.998c17.766 0 31.998 14.398 31.998 31.998S793.748 512 775.982 512z" fill="#D7E9FF" p-id="16421"></path><path d="M775.982 448.004c17.766 0 31.998 14.398 31.998 31.998S793.748 512 775.982 512c-17.592 0-31.998-14.398-31.998-31.998s14.406-31.998 31.998-31.998zM344.01 448.004c17.592 0 31.998 14.398 31.998 31.998S361.602 512 344.01 512c-17.594 0-31.998-14.398-31.998-31.998s14.404-31.998 31.998-31.998z" fill="#D7E9FF" p-id="16422"></path><path d="M328.01 480.002c0-14.828 10.266-27.264 24-30.858-2.578-0.672-5.218-1.14-8-1.14-17.594 0-31.998 14.398-31.998 31.998S326.416 512 344.01 512c2.782 0 5.422-0.468 8-1.14-13.734-3.594-24-16.03-24-30.858z" fill="#FFFFFF" p-id="16423"></path><path d="M360.008 480.002c0 14.828-10.264 27.264-23.998 30.858 2.578 0.672 5.218 1.14 8 1.14 17.592 0 31.998-14.398 31.998-31.998s-14.406-31.998-31.998-31.998c-2.782 0-5.422 0.468-8 1.14 13.734 3.594 23.998 16.03 23.998 30.858z" fill="#94C1FF" p-id="16424"></path><path d="M389.772 480.478l2.234-0.476c63.996 0 95.994-16 95.994-16s8.484-31.998-15.998-63.996c-28.638 43.036-83.2 47.52-94.072 47.998v-1.922c45.278-45.278 56.636-79.19 56.636-79.19s-16.638-28.638-56.636-33.92c9.438 47.036-20.484 86.394-30.56 98.072h-3.36c-0.156-63.356-16-95.034-16-95.034s-31.998-8.476-63.996 16c42.716 28.474 47.358 82.558 47.842 93.916l-1.766 0.156c-45.28-45.278-79.2-56.636-79.2-56.636s-28.638 16.638-33.92 56.636c50.248-10.078 91.528 24.638 100.166 32.318l-1.124 1.602c-63.996 0-95.994 16-95.994 16s-8.482 32 16 63.996c28.482-42.714 82.556-47.356 93.916-47.84l0.156 1.766c-45.28 45.278-56.636 79.2-56.636 79.2s16.638 28.622 56.636 33.902c-10.078-50.23 24.638-91.494 32.326-100.14l1.594 1.118c0 63.996 15.998 95.992 15.998 95.992s31.998 8.468 63.996-15.998c-43.042-28.638-47.512-83.198-47.996-94.072h1.922c45.278 45.278 79.198 56.636 79.198 56.636s28.638-16.638 33.92-56.636c-53.278 10.714-96.636-29.128-101.276-33.448zM344.01 512c-17.594 0-31.998-14.398-31.998-31.998s14.404-31.998 31.998-31.998c17.592 0 31.998 14.398 31.998 31.998S361.602 512 344.01 512z" fill="#D7E9FF" p-id="16425"></path><path d="M418.568 366.892s-11.36 33.912-56.638 79.19v1.922c2.812-0.124 8.562-0.532 16-1.782v-0.14c45.278-45.278 56.636-79.19 56.636-79.19s-16.638-28.638-56.636-33.92c0.266 1.352 0.406 2.672 0.61 4.008 27.918 9.506 40.028 29.912 40.028 29.912zM472.002 464.002s-31.998 16-95.994 16c0 0.782-0.172 1.516-0.234 2.282 9.25 8.196 44.996 37.13 89.432 33.076-40.874-3.204-71.574-31.288-75.434-34.88l2.234-0.476c63.996 0 95.994-16 95.994-16s8.484-31.998-15.998-63.996c-2.704 4.07-5.704 7.694-8.828 11.1 15.36 27.896 8.828 52.894 8.828 52.894zM474.69 515.618c-4.172 27.412-19.094 43.442-27.576 50.472 6.216 3.094 10.014 4.468 10.014 4.468s28.638-16.638 33.92-56.636c-5.58 1.124-11.03 1.586-16.358 1.696zM377.586 528.656a367.536 367.536 0 0 1-15.656-14.734h-1.922c0.484 10.876 4.954 65.434 47.998 94.072-15.328 11.718-30.56 15.794-42.374 16.952 10.546 1.234 34.452 1.344 58.372-16.952-32.576-21.67-43.044-58.152-46.418-79.338z" fill="#94C1FF" p-id="16426"></path><path d="M310.292 431.224a357.152 357.152 0 0 1 15.794 14.858l1.766-0.156c-0.484-11.358-5.124-65.442-47.84-93.916 15.326-11.726 30.56-15.796 42.374-16.952-10.546-1.226-34.452-1.344-58.374 16.952 32.438 21.622 42.906 57.98 46.28 79.214zM240.906 393.898c-6.218-3.07-10.016-4.454-10.016-4.454s-28.638 16.638-33.92 56.636c5.578-1.118 11.032-1.61 16.376-1.718 4.172-27.396 19.092-43.41 27.56-50.464zM269.452 593.122s11.36-33.922 56.636-79.2l-0.156-1.766c-2.888 0.124-8.56 0.524-15.842 1.742v0.024c-45.28 45.278-56.636 79.2-56.636 79.2s16.638 28.622 56.636 33.902c-0.266-1.344-0.39-2.656-0.594-4-27.936-9.498-40.044-29.902-40.044-29.902zM216.018 496s31.998-16 95.994-16c0-0.812 0.188-1.578 0.234-2.376-9.39-8.21-44.67-36.638-88.682-32.99 37.7 3.218 66.512 27.49 73.572 33.764l-1.124 1.602c-63.996 0-95.994 16-95.994 16s-8.482 32 16 63.996c2.718-4.06 5.718-7.686 8.828-11.092-15.36-27.896-8.828-52.904-8.828-52.904zM759.984 480.002c0-14.828 10.266-27.264 23.998-30.858-2.578-0.672-5.218-1.14-8-1.14-17.592 0-31.998 14.398-31.998 31.998S758.39 512 775.982 512c2.782 0 5.422-0.468 8-1.14-13.732-3.594-23.998-16.03-23.998-30.858z" fill="#FFFFFF" p-id="16427"></path><path d="M791.982 480.002c0 14.828-10.266 27.264-23.998 30.858 2.578 0.672 5.216 1.14 7.998 1.14 17.594 0 31.998-14.398 31.998-31.998s-14.404-31.998-31.998-31.998c-2.782 0-5.42 0.468-7.998 1.14 13.732 3.594 23.998 16.03 23.998 30.858zM850.542 366.892s-11.36 33.912-56.636 79.19v1.922c2.81-0.124 8.56-0.532 15.998-1.782v-0.14c45.28-45.278 56.636-79.19 56.636-79.19s-16.638-28.638-56.636-33.92c0.266 1.352 0.406 2.672 0.61 4.008 27.918 9.506 40.028 29.912 40.028 29.912z" fill="#94C1FF" p-id="16428"></path><path d="M903.974 464.002s-31.998 16-95.994 16c0 0.782-0.172 1.516-0.234 2.282 9.25 8.196 44.998 37.13 89.434 33.076-40.874-3.204-71.574-31.288-75.434-34.88l2.234-0.476c63.996 0 95.994-16 95.994-16s8.482-31.998-16-63.996c-2.704 4.07-5.702 7.694-8.826 11.1 15.358 27.896 8.826 52.894 8.826 52.894zM906.662 515.618c-4.172 27.412-19.092 43.442-27.576 50.472 6.218 3.094 10.016 4.468 10.016 4.468s28.638-16.638 33.92-56.636c-5.578 1.124-11.032 1.586-16.36 1.696zM809.558 528.656a366.34 366.34 0 0 1-15.654-14.734h-1.922c0.484 10.876 4.952 65.434 47.996 94.072-15.326 11.718-30.56 15.794-42.374 16.952 10.546 1.234 34.454 1.344 58.374-16.952-32.576-21.67-43.044-58.152-46.42-79.338z" fill="#94C1FF" p-id="16429"></path><path d="M742.266 431.224a358.27 358.27 0 0 1 15.796 14.858l1.766-0.156c-0.484-11.358-5.124-65.442-47.842-93.916 15.328-11.726 30.56-15.796 42.374-16.952-10.546-1.226-34.452-1.344-58.372 16.952 32.436 21.622 42.902 57.98 46.278 79.214zM672.878 393.898c-6.216-3.07-10.014-4.454-10.014-4.454s-28.638 16.638-33.92 56.636c5.578-1.118 11.032-1.61 16.374-1.718 4.172-27.396 19.094-43.41 27.56-50.464zM701.426 593.122s11.358-33.922 56.636-79.2l-0.156-1.766c-2.89 0.124-8.562 0.524-15.844 1.742v0.024c-45.278 45.278-56.636 79.2-56.636 79.2s16.64 28.622 56.636 33.902c-0.266-1.344-0.39-2.656-0.594-4-27.934-9.498-40.042-29.902-40.042-29.902zM647.99 496s31.998-16 95.994-16c0-0.812 0.188-1.578 0.234-2.376-9.39-8.21-44.668-36.638-88.682-32.99 37.702 3.218 66.512 27.49 73.574 33.764l-1.124 1.602c-63.996 0-95.994 16-95.994 16s-8.484 32 15.998 63.996c2.718-4.06 5.718-7.686 8.828-11.092-15.358-27.896-8.828-52.904-8.828-52.904z" fill="#FFFFFF" p-id="16430"></path><path d="M200.018 703.988h63.996v16h-63.996zM72.026 703.988h31.998v16H72.026z" fill="#94C1FF" p-id="16431"></path><path d="M72.026 240.016h63.996v16H72.026z" fill="#2287FF" p-id="16432"></path><path d="M294.136 703.988h225.862v16H294.136z" fill="#94C1FF" p-id="16433"></path><path d="M40.028 256.016h16v447.972h-16z" fill="#FFFFFF" p-id="16434"></path><path d="M999.968 256.016h16v447.972h-16z" fill="#5C9EFF" p-id="16435"></path><path d="M72.026 719.988h16v15.998h-16z" fill="#FFFFFF" p-id="16436"></path><path d="M200.018 719.988h16v31.996h-16z" fill="#FFFFFF" p-id="16437"></path><path d="M248.016 719.988h15.998v31.996h-15.998z" fill="#94C1FF" p-id="16438"></path><path d="M72.026 208.018h16v31.998h-16z" fill="#94C1FF" p-id="16439"></path><path d="M120.024 208.018h15.998v31.998h-15.998z" fill="#2287FF" p-id="16440"></path><path d="M296.012 719.988h16v31.996h-16z" fill="#FFFFFF" p-id="16441"></path><path d="M504 719.988h15.998v31.996H504z" fill="#94C1FF" p-id="16442"></path><path d="M1015.968 711.988c-4.422 0-8-3.578-8-8V256.016c0-4.422 3.578-8 8-8s8 3.578 8 8v447.972c0 4.422-3.578 8-8 8zM40.028 823.98a7.994 7.994 0 0 1-7.998-8V256.016c0-4.422 3.578-8 7.998-8 4.422 0 8 3.578 8 8V815.98c0 4.422-3.578 8-8 8z" fill="#116FFF" p-id="16443"></path><path d="M1015.968 264.016H40.028c-4.42 0-7.998-3.578-7.998-8s3.578-8 7.998-8h975.942c4.422 0 8 3.578 8 8s-3.58 8-8.002 8zM1015.968 711.988H40.028c-4.42 0-7.998-3.578-7.998-8s3.578-8 7.998-8h975.942c4.422 0 8 3.578 8 8s-3.58 8-8.002 8zM40.028 328.012H8.03c-4.42 0-7.998-3.578-7.998-8s3.578-8 7.998-8h31.998c4.422 0 8 3.578 8 8s-3.578 8-8 8z" fill="#116FFF" p-id="16444"></path><path d="M104.024 695.988a7.994 7.994 0 0 1-7.998-8V272.014c0-4.42 3.578-8 7.998-8 4.422 0 8 3.578 8 8v415.974c0 4.422-3.578 8-8 8zM72.026 344.01a7.994 7.994 0 0 1-7.998-8v-47.998c0-4.422 3.578-8 7.998-8 4.422 0 8 3.578 8 8v47.998c0 4.422-3.578 8-8 8zM8.03 679.99a7.994 7.994 0 0 1-7.998-8v-47.998a7.994 7.994 0 0 1 7.998-7.998c4.422 0 8 3.578 8 7.998v47.998c0 4.422-3.578 8-8 8zM40.028 599.994h-15.998c-4.422 0-8-3.578-8-7.998 0-4.422 3.578-8 8-8h15.998c4.422 0 8 3.578 8 8a7.994 7.994 0 0 1-8 7.998zM40.028 711.988h-15.998c-4.422 0-8-3.578-8-8s3.578-8 8-8h15.998c4.422 0 8 3.578 8 8s-3.578 8-8 8zM104.024 743.986a7.994 7.994 0 0 1-7.998-8v-15.998c0-4.422 3.578-8 7.998-8 4.422 0 8 3.578 8 8v15.998c0 4.422-3.578 8-8 8z" fill="#116FFF" p-id="16445"></path><path d="M104.024 743.986H72.026c-4.42 0-7.998-3.578-7.998-8s3.578-8 7.998-8h31.998c4.422 0 8 3.578 8 8s-3.578 8-8 8z" fill="#116FFF" p-id="16446"></path><path d="M72.026 743.986a7.994 7.994 0 0 1-7.998-8v-15.998c0-4.422 3.578-8 7.998-8 4.422 0 8 3.578 8 8v15.998c0 4.422-3.578 8-8 8zM72.026 248.016a7.994 7.994 0 0 1-7.998-8v-31.998c0-4.42 3.578-8 7.998-8 4.422 0 8 3.578 8 8v31.998c0 4.422-3.578 8-8 8z" fill="#116FFF" p-id="16447"></path><path d="M136.022 216.018H72.026c-4.42 0-7.998-3.578-7.998-8s3.578-8 7.998-8h63.996c4.422 0 8 3.578 8 8s-3.578 8-8 8z" fill="#116FFF" p-id="16448"></path><path d="M136.022 248.016a7.994 7.994 0 0 1-7.998-8v-31.998c0-4.42 3.578-8 7.998-8 4.422 0 8 3.578 8 8v31.998c0 4.422-3.578 8-8 8zM104.024 232.018a7.994 7.994 0 0 1-7.998-8v-16c0-4.42 3.578-8 7.998-8 4.422 0 8 3.578 8 8v16c0 4.422-3.578 8-8 8zM40.028 264.016a7.994 7.994 0 0 1-7.998-8v-16c0-4.42 3.578-8 7.998-8 4.422 0 8 3.578 8 8v16c0 4.422-3.578 8-8 8zM168.02 248.016a7.994 7.994 0 0 1-7.998-8v-16c0-4.422 3.578-8 7.998-8 4.422 0 8 3.578 8 8v16c0 4.422-3.578 8-8 8zM248.016 248.016a8.066 8.066 0 0 1-3.578-0.844l-31.998-15.998a8.006 8.006 0 0 1-3.578-10.734 8.032 8.032 0 0 1 10.734-3.578l31.998 16a8.006 8.006 0 0 1 3.578 10.734 8.008 8.008 0 0 1-7.156 4.42zM312.012 248.016a8.066 8.066 0 0 1-3.578-0.844l-31.998-15.998a8.006 8.006 0 0 1-3.578-10.734 8.028 8.028 0 0 1 10.734-3.578l31.998 16a8.006 8.006 0 0 1 3.578 10.734 8.008 8.008 0 0 1-7.156 4.42zM376.008 248.016a8.066 8.066 0 0 1-3.578-0.844l-31.998-15.998a8.006 8.006 0 0 1-3.578-10.734 8.032 8.032 0 0 1 10.734-3.578l31.998 16a8.006 8.006 0 0 1 3.578 10.734 8.008 8.008 0 0 1-7.156 4.42zM440.004 248.016a8.066 8.066 0 0 1-3.578-0.844l-31.998-15.998a8.006 8.006 0 0 1-3.578-10.734 8.032 8.032 0 0 1 10.734-3.578l31.998 16a8.006 8.006 0 0 1 3.578 10.734 8.008 8.008 0 0 1-7.156 4.42zM504 248.016a8.066 8.066 0 0 1-3.578-0.844l-31.998-15.998a8.006 8.006 0 0 1-3.578-10.734 8.028 8.028 0 0 1 10.734-3.578l31.998 16a8.006 8.006 0 0 1 3.578 10.734 8.008 8.008 0 0 1-7.156 4.42zM567.996 248.016a8.066 8.066 0 0 1-3.578-0.844l-31.998-15.998a8.006 8.006 0 0 1-3.578-10.734 8.032 8.032 0 0 1 10.734-3.578l31.998 16a8.006 8.006 0 0 1 3.578 10.734 8.008 8.008 0 0 1-7.156 4.42zM631.992 248.016a8.066 8.066 0 0 1-3.578-0.844l-31.998-15.998a8.006 8.006 0 0 1-3.578-10.734 8.032 8.032 0 0 1 10.734-3.578l31.998 16a8.006 8.006 0 0 1 3.578 10.734 8.008 8.008 0 0 1-7.156 4.42zM695.988 248.016a8.066 8.066 0 0 1-3.578-0.844l-31.998-15.998a8.006 8.006 0 0 1-3.578-10.734 8.028 8.028 0 0 1 10.734-3.578l31.998 16a8.006 8.006 0 0 1 3.578 10.734 8.008 8.008 0 0 1-7.156 4.42zM759.984 248.016a8.066 8.066 0 0 1-3.578-0.844l-31.998-15.998a8.006 8.006 0 0 1-3.578-10.734 8.032 8.032 0 0 1 10.734-3.578l31.998 16a8.006 8.006 0 0 1 3.578 10.734 8.008 8.008 0 0 1-7.156 4.42zM823.98 248.016a8.066 8.066 0 0 1-3.578-0.844l-31.998-15.998a8.006 8.006 0 0 1-3.578-10.734 8.032 8.032 0 0 1 10.734-3.578l31.998 16a8.006 8.006 0 0 1 3.578 10.734 8.008 8.008 0 0 1-7.156 4.42zM887.976 248.016a8.066 8.066 0 0 1-3.578-0.844l-31.998-15.998a8.006 8.006 0 0 1-3.578-10.734 8.028 8.028 0 0 1 10.734-3.578l31.998 16a8.006 8.006 0 0 1 3.578 10.734 8.008 8.008 0 0 1-7.156 4.42zM951.972 248.016a8.066 8.066 0 0 1-3.578-0.844l-31.998-15.998a8.006 8.006 0 0 1-3.578-10.734 8.032 8.032 0 0 1 10.734-3.578l31.998 16a8.006 8.006 0 0 1 3.578 10.734 8.008 8.008 0 0 1-7.156 4.42zM1015.968 248.016c-4.422 0-8-3.578-8-8v-16c0-4.422 3.578-8 8-8s8 3.578 8 8v16c0 4.422-3.578 8-8 8z" fill="#116FFF" p-id="16449"></path><path d="M1015.968 232.018H168.02c-4.42 0-7.998-3.578-7.998-8s3.578-8 7.998-8h847.95c4.422 0 8 3.578 8 8s-3.58 8-8.002 8zM344.01 663.99c-101.448 0-183.988-82.526-183.988-183.988 0-101.456 82.542-183.988 183.988-183.988s183.988 82.534 183.988 183.988c0 101.462-82.54 183.988-183.988 183.988z m0-351.978c-92.634 0-167.99 75.364-167.99 167.99 0 92.62 75.356 167.99 167.99 167.99S512 572.622 512 480.002c0-92.626-75.356-167.99-167.99-167.99z" fill="#116FFF" p-id="16450"></path><path d="M344.01 432.004h-8c-0.156-61.262-15.014-92.134-15.17-92.44a8.02 8.02 0 0 1 3.624-10.71 7.98 7.98 0 0 1 10.704 3.578c0.688 1.36 16.688 34.1 16.844 98.588l-8.002 0.984zM312.012 455.958h-0.046a7.956 7.956 0 0 1-7.954-7.954c-0.032-0.21-0.14-1.532-0.156-1.734-0.422-9.984-4.546-61.122-44.278-87.604a8 8 0 0 1-2.218-11.094 8.026 8.026 0 0 1 11.092-2.218c46.17 30.772 50.92 88.894 51.404 100.228 0.172 1.25 0.156 2.422 0.156 2.422-0.048 4.382-3.626 7.954-8 7.954z" fill="#116FFF" p-id="16451"></path><path d="M264.014 360.01a7.98 7.98 0 0 1-6.358-3.14 8 8 0 0 1 1.5-11.21c34.7-26.568 69.432-17.756 70.9-17.38a8.012 8.012 0 0 1 5.688 9.78 7.98 7.98 0 0 1-9.782 5.686c-1.124-0.296-28.81-7.014-57.09 14.618a7.986 7.986 0 0 1-4.858 1.646zM344.01 520c-22.06 0-39.998-17.946-39.998-39.998s17.938-39.998 39.998-39.998 39.998 17.946 39.998 39.998S366.07 520 344.01 520z m0-63.996c-13.234 0-23.998 10.764-23.998 23.998S330.776 504 344.01 504c13.232 0 23.998-10.764 23.998-23.998s-10.766-23.998-23.998-23.998zM360.008 631.992a7.998 7.998 0 0 1-7.154-4.422c-0.688-1.376-16.844-34.434-16.844-99.57 0-4.422 3.578-8 8-8s8 3.578 8 8c0 60.934 15.014 92.118 15.17 92.43a8.026 8.026 0 0 1-7.172 11.562zM424.004 615.994a8.014 8.014 0 0 1-4.436-1.344c-46.186-30.716-51.044-89.002-51.544-100.37l-0.016-2.28c0-4.422 3.578-8 8-8s8 3.578 8 8v1.922c0.438 9.664 4.67 60.964 44.434 87.416a7.996 7.996 0 0 1 2.218 11.094 7.976 7.976 0 0 1-6.656 3.562z" fill="#116FFF" p-id="16452"></path><path d="M373.96 633.43c-9.328 0-15.406-1.546-16-1.704a8.02 8.02 0 0 1-5.686-9.782 8.014 8.014 0 0 1 9.78-5.686c1.11 0.266 28.794 7.014 57.092-14.61a7.992 7.992 0 1 1 9.716 12.688c-20.622 15.782-41.244 19.094-54.902 19.094zM310.09 454.082a7.976 7.976 0 0 1-5.656-2.344c-43.124-43.124-75.778-54.606-76.106-54.716a8 8 0 0 1-4.998-10.14c1.406-4.18 5.936-6.406 10.108-5.024 1.454 0.484 36.232 12.484 82.308 58.566a8 8 0 0 1-5.656 13.658zM298.73 488.002a7.984 7.984 0 0 1-5.61-2.296l-1.686-1.688c-10.188-9.046-48.28-39.06-92.886-30.092-4.28 0.89-8.544-1.922-9.42-6.274a7.994 7.994 0 0 1 6.266-9.414c51.856-10.444 95.072 23.522 107.054 34.186l1.89 1.876a7.996 7.996 0 0 1-5.608 13.702z" fill="#116FFF" p-id="16453"></path><path d="M196.986 454.082a8.004 8.004 0 0 1-7.95-9.046c5.734-43.396 36.53-61.746 37.842-62.504a8 8 0 0 1 10.936 2.898 7.988 7.988 0 0 1-2.906 10.928c-1 0.602-25.342 15.436-29.998 50.77a8.006 8.006 0 0 1-7.924 6.954zM457.126 578.558a8 8 0 0 1-2.546-0.406c-1.454-0.5-36.23-12.5-82.306-58.574a8 8 0 1 1 11.312-11.312c43.122 43.124 75.776 54.606 76.104 54.714a8 8 0 0 1 5 10.14 7.98 7.98 0 0 1-7.564 5.438zM472.736 523.742c-45.638 0-81.028-30.522-88.416-37.412l4.966-6.328 5.656-5.656c7.718 7.204 47.154 41.326 94.526 31.732 4.282-0.89 8.546 1.922 9.422 6.266a8.006 8.006 0 0 1-6.266 9.422 100.666 100.666 0 0 1-19.888 1.976z" fill="#116FFF" p-id="16454"></path><path d="M457.126 578.558a7.984 7.984 0 0 1-6.92-3.984 7.98 7.98 0 0 1 2.904-10.922c1-0.61 25.344-15.436 30-50.778 0.578-4.39 4.686-7.492 8.982-6.882a8.004 8.004 0 0 1 6.89 8.976c-5.734 43.402-36.53 61.746-37.842 62.496a7.8 7.8 0 0 1-4.014 1.094zM200.034 503.992a7.984 7.984 0 0 1-7.17-4.444 7.996 7.996 0 0 1 3.576-10.702c1.376-0.688 34.436-16.844 99.572-16.844 4.422 0 8 3.578 8 8s-3.578 8-8 8c-60.934 0-92.134 15.014-92.432 15.162-1.14 0.562-2.36 0.828-3.546 0.828zM216.018 567.996a8 8 0 0 1-6.656-12.436c30.78-46.162 88.9-50.912 100.228-51.396 1.282-0.188 2.422-0.204 2.422-0.164 4.406 0.054 7.984 3.648 7.954 8.046S316.418 520 312.012 520c-0.204 0.024-1.532 0.14-1.734 0.148-9.984 0.43-61.122 4.562-87.604 44.286a7.996 7.996 0 0 1-6.656 3.562z" fill="#116FFF" p-id="16455"></path><path d="M216.018 567.996a7.982 7.982 0 0 1-6.36-3.14c-26.56-34.714-17.764-69.44-17.374-70.902a7.966 7.966 0 0 1 9.78-5.686 8 8 0 0 1 5.688 9.78c-0.282 1.132-7.016 28.828 14.624 57.09 2.672 3.514 2.016 8.53-1.5 11.202a7.884 7.884 0 0 1-4.858 1.656zM392.006 488.002c-4.42 0-7.998-3.578-7.998-8s3.578-8 7.998-8c60.934 0 92.134-15.014 92.432-15.162 3.968-1.938 8.766-0.344 10.718 3.616a7.994 7.994 0 0 1-3.578 10.702c-1.374 0.688-34.436 16.844-99.572 16.844zM376.008 456.004c-4.422 0-8-3.578-8-8s3.578-8 8-8h1.922c9.656-0.43 60.934-4.632 87.416-44.426 2.438-3.696 7.406-4.656 11.094-2.234a8 8 0 0 1 2.218 11.092c-30.764 46.232-89.012 51.06-100.384 51.56l-2.266 0.008z" fill="#116FFF" p-id="16456"></path><path d="M488 472.002a8 8 0 0 1-7.732-10.046c0.282-1.132 7.014-28.826-14.624-57.09a7.998 7.998 0 0 1 1.5-11.208c3.5-2.672 8.532-2.032 11.218 1.492 26.56 34.716 17.764 69.44 17.374 70.902a8.012 8.012 0 0 1-7.736 5.95zM253.454 601.104a7.984 7.984 0 0 1-7.578-10.53c0.484-1.454 12.484-36.232 58.558-82.308a8 8 0 1 1 11.312 11.312c-43.124 43.122-54.608 75.778-54.716 76.106a8.038 8.038 0 0 1-7.576 5.42zM310.074 635.024a8.008 8.008 0 0 1-7.828-6.422c-10.42-51.95 23.53-95.072 34.186-107.04l1.968-1.984c3.156-3.086 8.218-3.062 11.312 0.094a7.996 7.996 0 0 1-0.094 11.312l-1.5 1.514c-9.14 10.282-39.154 48.28-30.186 92.962a7.98 7.98 0 0 1-6.266 9.406c-0.53 0.126-1.06 0.158-1.592 0.158z" fill="#116FFF" p-id="16457"></path><path d="M310.106 635.024c-0.36 0-0.704-0.016-1.062-0.062-43.388-5.718-61.746-36.53-62.512-37.842a7.98 7.98 0 0 1 2.906-10.92 7.986 7.986 0 0 1 10.936 2.89c0.594 1 15.438 25.342 50.764 30.014a8.006 8.006 0 0 1 6.89 8.982 7.998 7.998 0 0 1-7.922 6.938zM377.93 454.082a8 8 0 0 1-5.656-13.656c43.124-43.122 54.606-75.776 54.714-76.096a8.02 8.02 0 0 1 10.14-5.006 7.984 7.984 0 0 1 5.016 10.108c-0.484 1.46-12.484 36.232-58.558 82.308a7.982 7.982 0 0 1-5.656 2.342zM344.026 442.708a8 8 0 0 1-5.688-13.632c0.11-0.102 1.218-1.234 2.984-3.272 8.954-10.368 37.514-47.646 28.764-91.26a7.994 7.994 0 0 1 6.266-9.414c4.282-0.868 8.546 1.93 9.422 6.274 10.17 50.722-22.188 93.096-32.342 104.868-2.328 2.688-3.766 4.11-3.766 4.11a7.99 7.99 0 0 1-5.64 2.326z" fill="#116FFF" p-id="16458"></path><path d="M434.566 374.89a7.988 7.988 0 0 1-6.922-3.984c-0.594-1-15.436-25.342-50.762-30.006a8.002 8.002 0 0 1-6.89-8.974c0.578-4.39 4.656-7.468 8.984-6.882 43.386 5.726 61.746 36.522 62.512 37.834a7.988 7.988 0 0 1-2.906 10.928 7.96 7.96 0 0 1-4.016 1.084zM775.982 663.99c-101.448 0-183.988-82.526-183.988-183.988 0-101.456 82.542-183.988 183.988-183.988s183.99 82.534 183.99 183.988c0 101.462-82.542 183.988-183.99 183.988z m0-351.978c-92.634 0-167.99 75.364-167.99 167.99 0 92.62 75.356 167.99 167.99 167.99s167.99-75.372 167.99-167.99c0-92.626-75.354-167.99-167.99-167.99z" fill="#116FFF" p-id="16459"></path><path d="M775.982 432.004h-7.998c-0.156-61.262-15.016-92.134-15.172-92.44a8.02 8.02 0 0 1 3.624-10.71 7.974 7.974 0 0 1 10.704 3.578c0.688 1.36 16.686 34.1 16.842 98.588l-8 0.984zM743.984 455.958h-0.046a7.956 7.956 0 0 1-7.954-7.954c-0.032-0.21-0.14-1.532-0.156-1.734-0.422-9.984-4.544-61.122-44.278-87.604a8 8 0 0 1-2.218-11.094c2.454-3.68 7.454-4.64 11.094-2.218 46.168 30.772 50.918 88.894 51.402 100.228 0.172 1.25 0.156 2.422 0.156 2.422-0.046 4.382-3.624 7.954-8 7.954z" fill="#116FFF" p-id="16460"></path><path d="M695.988 360.01a7.982 7.982 0 0 1-6.36-3.14 8 8 0 0 1 1.5-11.21c34.702-26.568 69.45-17.756 70.902-17.38a8.012 8.012 0 0 1 5.688 9.78 7.996 7.996 0 0 1-9.782 5.686c-1.124-0.296-28.81-7.014-57.09 14.618a7.98 7.98 0 0 1-4.858 1.646zM775.982 520c-22.06 0-39.998-17.946-39.998-39.998s17.938-39.998 39.998-39.998 39.998 17.946 39.998 39.998S798.042 520 775.982 520z m0-63.996c-13.232 0-23.998 10.764-23.998 23.998S762.75 504 775.982 504c13.234 0 23.998-10.764 23.998-23.998s-10.764-23.998-23.998-23.998zM791.982 631.992a8 8 0 0 1-7.156-4.422c-0.688-1.376-16.842-34.434-16.842-99.57 0-4.422 3.578-8 7.998-8 4.422 0 8 3.578 8 8 0 60.934 15.014 92.118 15.17 92.43a8.026 8.026 0 0 1-7.17 11.562zM855.978 615.994a8.024 8.024 0 0 1-4.438-1.344c-46.186-30.716-51.044-89.002-51.544-100.37l-0.016-2.28c0-4.422 3.578-8 8-8s8 3.578 8 8v1.922c0.438 9.664 4.672 60.964 44.434 87.416a7.996 7.996 0 0 1 2.218 11.094 7.97 7.97 0 0 1-6.654 3.562z" fill="#116FFF" p-id="16461"></path><path d="M805.934 633.43c-9.328 0-15.404-1.546-15.998-1.704a8.018 8.018 0 0 1-5.688-9.782c1.124-4.264 5.454-6.794 9.782-5.686 1.11 0.266 28.81 7.014 57.09-14.61a7.99 7.99 0 0 1 11.216 1.484c2.672 3.516 2.016 8.532-1.5 11.204-20.624 15.782-41.246 19.094-54.902 19.094zM742.062 454.082a7.976 7.976 0 0 1-5.656-2.344c-43.122-43.124-75.776-54.606-76.104-54.716a8 8 0 0 1 5.11-15.164c1.454 0.484 36.232 12.484 82.306 58.566a8 8 0 0 1-5.656 13.658zM730.706 488.002a7.984 7.984 0 0 1-5.61-2.296l-1.688-1.688c-10.188-9.046-48.326-39.06-92.884-30.092-4.282 0.89-8.546-1.922-9.422-6.274a7.994 7.994 0 0 1 6.266-9.414c51.856-10.444 95.072 23.522 107.054 34.186l1.89 1.876a7.996 7.996 0 0 1-5.606 13.702z" fill="#116FFF" p-id="16462"></path><path d="M628.96 454.082a8.004 8.004 0 0 1-7.952-9.046c5.734-43.396 36.53-61.746 37.842-62.504a8 8 0 0 1 10.936 2.898 7.988 7.988 0 0 1-2.904 10.928c-1 0.602-25.342 15.436-29.998 50.77a8.004 8.004 0 0 1-7.924 6.954zM889.102 578.558a8 8 0 0 1-2.546-0.406c-1.454-0.5-36.232-12.5-82.308-58.574a8 8 0 1 1 11.312-11.312c43.124 43.124 75.778 54.606 76.106 54.714a8 8 0 0 1 5 10.14 7.98 7.98 0 0 1-7.564 5.438zM904.708 523.742c-45.636 0-81.026-30.522-88.416-37.412l4.968-6.328 5.656-5.656c7.718 7.204 47.136 41.326 94.526 31.732 4.28-0.89 8.544 1.922 9.42 6.266a8.006 8.006 0 0 1-6.266 9.422 100.652 100.652 0 0 1-19.888 1.976z" fill="#116FFF" p-id="16463"></path><path d="M889.102 578.558a7.988 7.988 0 0 1-6.922-3.984 7.98 7.98 0 0 1 2.906-10.922c1-0.61 25.342-15.436 29.998-50.778 0.578-4.39 4.688-7.492 8.982-6.882a8.004 8.004 0 0 1 6.89 8.976c-5.734 43.402-36.528 61.746-37.84 62.496a7.806 7.806 0 0 1-4.014 1.094zM632.008 503.992a7.988 7.988 0 0 1-7.172-4.444 7.994 7.994 0 0 1 3.578-10.702c1.376-0.688 34.436-16.844 99.572-16.844 4.42 0 7.998 3.578 7.998 8s-3.578 8-7.998 8c-60.934 0-92.134 15.014-92.432 15.162a8.02 8.02 0 0 1-3.546 0.828zM647.99 567.996a8 8 0 0 1-6.654-12.436c30.778-46.162 88.9-50.912 100.226-51.396 1.282-0.188 2.422-0.204 2.422-0.164 4.406 0.054 7.984 3.648 7.954 8.046S748.39 520 743.984 520c-0.204 0.024-1.532 0.14-1.734 0.148-9.984 0.43-61.122 4.562-87.604 44.286a7.994 7.994 0 0 1-6.656 3.562z" fill="#116FFF" p-id="16464"></path><path d="M647.99 567.996a7.98 7.98 0 0 1-6.358-3.14c-26.562-34.714-17.766-69.44-17.376-70.902a7.99 7.99 0 0 1 9.782-5.686 8 8 0 0 1 5.688 9.78c-0.282 1.132-7.016 28.828 14.624 57.09 2.672 3.514 2.016 8.53-1.5 11.202a7.89 7.89 0 0 1-4.86 1.656zM823.98 488.002c-4.422 0-8-3.578-8-8s3.578-8 8-8c60.934 0 92.134-15.014 92.432-15.162 3.984-1.938 8.78-0.344 10.716 3.616a7.996 7.996 0 0 1-3.576 10.702c-1.374 0.688-34.434 16.844-99.572 16.844zM807.98 456.004c-4.422 0-8-3.578-8-8s3.578-8 8-8h1.922c9.656-0.43 60.934-4.632 87.418-44.426 2.438-3.696 7.388-4.656 11.092-2.234a8 8 0 0 1 2.218 11.092c-30.764 46.232-89.01 51.06-100.384 51.56l-2.266 0.008z" fill="#116FFF" p-id="16465"></path><path d="M919.974 472.002a8 8 0 0 1-7.734-10.046c0.282-1.132 7.016-28.826-14.624-57.09a7.998 7.998 0 0 1 1.5-11.208 8.002 8.002 0 0 1 11.216 1.492c26.56 34.716 17.764 69.44 17.374 70.902a8.004 8.004 0 0 1-7.732 5.95zM685.426 601.104a7.984 7.984 0 0 1-7.578-10.53c0.484-1.454 12.484-36.232 58.558-82.308a8 8 0 1 1 11.312 11.312c-43.122 43.122-54.606 75.778-54.714 76.106a8.04 8.04 0 0 1-7.578 5.42zM742.046 635.024a8.008 8.008 0 0 1-7.828-6.422c-10.42-51.95 23.532-95.072 34.188-107.04l1.968-1.984a7.996 7.996 0 1 1 11.216 11.406l-1.5 1.514c-9.138 10.282-39.154 48.28-30.186 92.962a7.98 7.98 0 0 1-6.266 9.406c-0.528 0.126-1.06 0.158-1.592 0.158z" fill="#116FFF" p-id="16466"></path><path d="M742.078 635.024c-0.36 0-0.704-0.016-1.062-0.062-43.386-5.718-61.746-36.53-62.512-37.842a7.98 7.98 0 0 1 2.906-10.92 7.99 7.99 0 0 1 10.938 2.89c0.594 1 15.438 25.342 50.762 30.014a8.006 8.006 0 0 1 6.89 8.982 7.996 7.996 0 0 1-7.922 6.938zM809.902 454.082a8 8 0 0 1-5.656-13.656c43.124-43.122 54.608-75.776 54.716-76.096 1.436-4.17 5.982-6.406 10.138-5.006a7.984 7.984 0 0 1 5.016 10.108c-0.484 1.46-12.484 36.232-58.558 82.308a7.98 7.98 0 0 1-5.656 2.342zM775.998 442.708a7.998 7.998 0 0 1-5.654-2.336 7.994 7.994 0 0 1-0.032-11.296c0.11-0.102 1.218-1.234 2.982-3.272 8.954-10.368 37.514-47.646 28.764-91.26a7.994 7.994 0 0 1 6.266-9.414c4.282-0.868 8.546 1.93 9.422 6.274 10.172 50.722-22.186 93.096-32.342 104.868-2.328 2.688-3.766 4.11-3.766 4.11a7.988 7.988 0 0 1-5.64 2.326z" fill="#116FFF" p-id="16467"></path><path d="M866.54 374.89a7.982 7.982 0 0 1-6.92-3.984c-0.594-1-15.438-25.342-50.764-30.006a8.002 8.002 0 0 1-6.89-8.974c0.578-4.39 4.656-7.468 8.984-6.882 43.388 5.726 61.746 36.522 62.512 37.834a7.988 7.988 0 0 1-2.906 10.928 7.964 7.964 0 0 1-4.016 1.084zM200.018 759.984a7.994 7.994 0 0 1-7.998-8v-31.996c0-4.422 3.578-8 7.998-8 4.422 0 8 3.578 8 8v31.996c0 4.422-3.578 8-8 8z" fill="#116FFF" p-id="16468"></path><path d="M264.014 759.984h-63.996a7.994 7.994 0 0 1-7.998-8 7.994 7.994 0 0 1 7.998-7.998h63.996c4.422 0 8 3.578 8 7.998 0 4.422-3.578 8-8 8z" fill="#116FFF" p-id="16469"></path><path d="M264.014 759.984a7.994 7.994 0 0 1-7.998-8v-31.996c0-4.422 3.578-8 7.998-8 4.422 0 8 3.578 8 8v31.996c0 4.422-3.578 8-8 8zM296.012 759.984a7.994 7.994 0 0 1-7.998-8v-31.996c0-4.422 3.578-8 7.998-8 4.422 0 8 3.578 8 8v31.996c0 4.422-3.578 8-8 8z" fill="#116FFF" p-id="16470"></path><path d="M519.998 759.984H296.012a7.994 7.994 0 0 1-7.998-8 7.994 7.994 0 0 1 7.998-7.998h223.986c4.422 0 8 3.578 8 7.998 0 4.422-3.578 8-8 8z" fill="#116FFF" p-id="16471"></path><path d="M519.998 759.984a7.994 7.994 0 0 1-7.998-8v-31.996c0-4.422 3.578-8 7.998-8 4.422 0 8 3.578 8 8v31.996c0 4.422-3.578 8-8 8zM551.996 743.986c-4.422 0-8-3.578-8-8v-15.998c0-4.422 3.578-8 8-8s8 3.578 8 8v15.998c0 4.422-3.578 8-8 8zM56.028 823.98h-16a7.994 7.994 0 0 1-7.998-8 7.994 7.994 0 0 1 7.998-7.998h16c4.422 0 8 3.578 8 7.998 0 4.422-3.578 8-8 8zM328.01 759.984a7.994 7.994 0 0 1-7.998-8v-7.998c0-4.422 3.578-8 7.998-8 4.422 0 8 3.578 8 8v7.998c0 4.422-3.578 8-8 8zM232.016 759.984a7.994 7.994 0 0 1-7.998-8v-7.998c0-4.422 3.578-8 7.998-8 4.422 0 8 3.578 8 8v7.998c0 4.422-3.578 8-8 8zM360.008 759.984a7.994 7.994 0 0 1-7.998-8v-7.998c0-4.422 3.578-8 7.998-8 4.422 0 8 3.578 8 8v7.998c0 4.422-3.578 8-8 8zM392.006 759.984a7.994 7.994 0 0 1-7.998-8v-7.998c0-4.422 3.578-8 7.998-8 4.422 0 8 3.578 8 8v7.998c0 4.422-3.578 8-8 8zM424.004 759.984a7.994 7.994 0 0 1-7.998-8v-7.998c0-4.422 3.578-8 7.998-8 4.422 0 8 3.578 8 8v7.998c0 4.422-3.578 8-8 8zM456.002 759.984a7.994 7.994 0 0 1-7.998-8v-7.998c0-4.422 3.578-8 7.998-8 4.422 0 8 3.578 8 8v7.998c0 4.422-3.578 8-8 8zM488 759.984a7.994 7.994 0 0 1-7.998-8v-7.998c0-4.422 3.578-8 7.998-8 4.422 0 8 3.578 8 8v7.998c0 4.422-3.578 8-8 8z" fill="#116FFF" p-id="16472"></path><path d="M569.278 743.986h-17.282c-4.422 0-8-3.578-8-8s3.578-8 8-8h17.282c4.422 0 8 3.578 8 8s-3.578 8-8 8z" fill="#116FFF" p-id="16473"></path></svg>