<?xml version="1.0" standalone="no"?><!DOCTYPE svg PUBLIC "-//W3C//DTD SVG 1.1//EN" "http://www.w3.org/Graphics/SVG/1.1/DTD/svg11.dtd"><svg t="1699690042994" class="icon" viewBox="0 0 1024 1024" version="1.1" xmlns="http://www.w3.org/2000/svg" p-id="27196" xmlns:xlink="http://www.w3.org/1999/xlink" width="512" height="512"><path d="M749.145152 95.397443H274.906043c-31.19881 0-56.566593 25.367783-56.566593 56.566593v633.423585c0 31.201881 25.367783 56.566593 56.566593 56.566592h33.101188v62.334139c0 13.564433 10.987313 24.551746 24.482122 24.551746 13.567504 0 24.554818-10.987313 24.554818-24.551746v-62.334139h41.304558v62.334139c0 13.564433 10.987313 24.551746 24.554818 24.551746 13.494809 0 24.482122-10.987313 24.482122-24.551746v-62.334139h41.373158v62.334139c0 13.564433 10.921785 24.551746 24.555842 24.551746 13.42928 0 24.416593-10.987313 24.416593-24.551746v-62.334139h41.373158v62.334139c0 13.564433 10.987313 24.551746 24.486218 24.551746 13.564433 0 24.551746-10.987313 24.551746-24.551746v-62.334139h41.373158v62.334139c0 13.564433 10.987313 24.551746 24.486218 24.551746 13.564433 0 24.551746-10.987313 24.551746-24.551746v-62.334139h30.590622c31.19881 0 56.566593-25.364711 56.566592-56.566592V151.964036c0.001024-31.19881-25.366759-56.566593-56.565568-56.566593z" fill="#27323A" p-id="27197"></path><path d="M578.834115 792.916249H451.526261v-61.178172a16.310493 16.310493 0 0 0-16.346329-16.345305h-60.841314c28.62169-37.709697 121.884333-160.6773 141.483546-186.451565 7.191771 9.494489 123.512311 162.781384 141.487641 186.451565h-62.129361a16.310493 16.310493 0 0 0-16.346329 16.345305v61.178172z" fill="#FFFFFF" p-id="27198"></path><path d="M528.779433 491.973827c-3.052202-4.069944-7.869583-6.442286-12.956245-6.442287-5.083591 0-9.900971 2.371318-13.022798 6.442287l-51.680611 68.095541c-77.934055-26.992689-131.718751-100.312093-131.718752-182.586398 0-106.281344 86.410802-192.692146 192.692147-192.692147 106.149263 0 192.625594 86.410802 192.625593 192.692147 0 79.08695-51.478906 151.387589-125.954277 180.350233l-49.985057-65.859376z" fill="#F4CE73" p-id="27199"></path><path d="M756.739309 785.387621c0 4.139568-3.458685 7.528629-7.594157 7.528628H611.457149V748.084407h78.745996c6.240581 0 11.869903-3.528309 14.650775-9.088007a16.265442 16.265442 0 0 0 1.694531-7.258323c0-3.528309-1.152895-6.986993-3.323532-9.899947L599.115235 584.690739c82.205705-35.945542 138.226567-117.810293 138.226567-207.207769 0-124.255651-101.058505-225.383781-225.248628-225.383781-124.325276 0-225.383781 101.12813-225.383781 225.383781 0 92.651383 58.261123 175.467324 143.925512 209.648711l-102.2114 134.705425c-3.733086 4.948438-4.341274 11.595501-1.629002 17.158271 2.781896 5.559697 8.476747 9.088006 14.650775 9.088006h77.388325v44.831842H274.906043c-4.135473 0-7.528629-3.38906-7.528629-7.528628V151.964036c0-4.135473 3.393156-7.598253 7.528629-7.598253h474.239109c4.135473 0 7.594157 3.461756 7.594157 7.598253v633.423585z" fill="#79CCBF" p-id="27200"></path><path d="M452.137521 373.076167c0 33.032588 26.857536 59.890124 59.955653 59.890125 32.962964 0 59.753948-26.857536 59.753947-59.890125s-26.792007-59.890124-59.753947-59.890124c-33.098117 0-59.955653 26.85856-59.955653 59.890124z" fill="#27323A" p-id="27201"></path><path d="M484.829155 373.076167c0-14.991729 12.206761-27.19849 27.264019-27.198489 14.922105 0 27.131937 12.206761 27.131937 27.198489 0 14.987633-12.209832 27.19849-27.131937 27.19849-15.057258 0-27.264018-12.209832-27.264019-27.19849z" fill="#FFFFFF" p-id="27202"></path></svg>